<?xml version="1.0" encoding="UTF-8" standalone="no"?>
<!DOCTYPE svg PUBLIC "-//W3C//DTD SVG 1.1//EN"
 "http://www.w3.org/Graphics/SVG/1.1/DTD/svg11.dtd">
<!-- Generated by graphviz version 12.1.1 (20240910.0053)
 -->
<!-- Title: BehaviorTree Pages: 1 -->
<svg width="353pt" height="188pt"
 viewBox="0.00 0.00 352.71 188.00" xmlns="http://www.w3.org/2000/svg" xmlns:xlink="http://www.w3.org/1999/xlink">
<g id="graph0" class="graph" transform="scale(1 1) rotate(0) translate(4 184)">
<title>BehaviorTree</title>
<!-- Fallback1 -->
<g id="node1" class="node">
<title>Fallback1</title>
<polygon fill="#ffcccc" stroke="black" points="276.71,-180 222.71,-180 222.71,-144 276.71,-144 276.71,-180"/>
<text text-anchor="middle" x="249.71" y="-156.95" font-family="Times New Roman,serif" font-size="14.00">?</text>
</g>
<!-- Sequence1 -->
<g id="node2" class="node">
<title>Sequence1</title>
<polygon fill="#ffcccc" stroke="black" points="238.71,-108 184.71,-108 184.71,-72 238.71,-72 238.71,-108"/>
<text text-anchor="middle" x="211.71" y="-84.95" font-family="Times New Roman,serif" font-size="14.00">→</text>
</g>
<!-- Fallback1&#45;&gt;Sequence1 -->
<g id="edge1" class="edge">
<title>Fallback1&#45;&gt;Sequence1</title>
<path fill="none" stroke="black" d="M240.31,-143.7C236.12,-135.98 231.09,-126.71 226.42,-118.11"/>
<polygon fill="black" stroke="black" points="229.56,-116.55 221.71,-109.43 223.41,-119.89 229.56,-116.55"/>
</g>
<!-- Action4_MoveTo -->
<g id="node6" class="node">
<title>Action4_MoveTo</title>
<polygon fill="white" stroke="black" points="318.96,-108 256.46,-108 256.46,-72 318.96,-72 318.96,-108"/>
<text text-anchor="middle" x="287.71" y="-84.95" font-family="Times New Roman,serif" font-size="14.00">MoveTo</text>
</g>
<!-- Fallback1&#45;&gt;Action4_MoveTo -->
<g id="edge5" class="edge">
<title>Fallback1&#45;&gt;Action4_MoveTo</title>
<path fill="none" stroke="black" d="M259.1,-143.7C263.29,-135.98 268.32,-126.71 272.99,-118.11"/>
<polygon fill="black" stroke="black" points="276,-119.89 277.7,-109.43 269.85,-116.55 276,-119.89"/>
</g>
<!-- Action1_LookForPlayer -->
<g id="node3" class="node">
<title>Action1_LookForPlayer</title>
<ellipse fill="#ffffcc" stroke="black" cx="66.71" cy="-18" rx="66.71" ry="18"/>
<text text-anchor="middle" x="66.71" y="-12.95" font-family="Times New Roman,serif" font-size="14.00">LookForPlayer</text>
</g>
<!-- Sequence1&#45;&gt;Action1_LookForPlayer -->
<g id="edge2" class="edge">
<title>Sequence1&#45;&gt;Action1_LookForPlayer</title>
<path fill="none" stroke="black" d="M184.43,-75.83C163.04,-65.51 132.9,-50.96 108.48,-39.17"/>
<polygon fill="black" stroke="black" points="110.29,-36.15 99.76,-34.96 107.25,-42.46 110.29,-36.15"/>
</g>
<!-- Action2_CloseEnough -->
<g id="node4" class="node">
<title>Action2_CloseEnough</title>
<ellipse fill="#ffffcc" stroke="black" cx="211.71" cy="-18" rx="60.56" ry="18"/>
<text text-anchor="middle" x="211.71" y="-12.95" font-family="Times New Roman,serif" font-size="14.00">CloseEnough</text>
</g>
<!-- Sequence1&#45;&gt;Action2_CloseEnough -->
<g id="edge3" class="edge">
<title>Sequence1&#45;&gt;Action2_CloseEnough</title>
<path fill="none" stroke="black" d="M211.71,-71.7C211.71,-64.41 211.71,-55.73 211.71,-47.54"/>
<polygon fill="black" stroke="black" points="215.21,-47.62 211.71,-37.62 208.21,-47.62 215.21,-47.62"/>
</g>
<!-- Action3_Dance -->
<g id="node5" class="node">
<title>Action3_Dance</title>
<polygon fill="white" stroke="black" points="344.71,-36 290.71,-36 290.71,0 344.71,0 344.71,-36"/>
<text text-anchor="middle" x="317.71" y="-12.95" font-family="Times New Roman,serif" font-size="14.00">Dance</text>
</g>
<!-- Sequence1&#45;&gt;Action3_Dance -->
<g id="edge4" class="edge">
<title>Sequence1&#45;&gt;Action3_Dance</title>
<path fill="none" stroke="black" d="M238.18,-71.52C251.43,-62.76 267.67,-52.04 282.01,-42.58"/>
<polygon fill="black" stroke="black" points="283.89,-45.53 290.31,-37.09 280.03,-39.68 283.89,-45.53"/>
</g>
</g>
</svg>
